%TF.GenerationSoftware,KiCad,Pcbnew,6.0.9-8da3e8f707~117~ubuntu20.04.1*%
%TF.CreationDate,2023-05-14T18:26:46-04:00*%
%TF.ProjectId,6551usb,36353531-7573-4622-9e6b-696361645f70,1.09*%
%TF.SameCoordinates,Original*%
%TF.FileFunction,Profile,NP*%
%FSLAX46Y46*%
G04 Gerber Fmt 4.6, Leading zero omitted, Abs format (unit mm)*
G04 Created by KiCad (PCBNEW 6.0.9-8da3e8f707~117~ubuntu20.04.1) date 2023-05-14 18:26:46*
%MOMM*%
%LPD*%
G01*
G04 APERTURE LIST*
%TA.AperFunction,Profile*%
%ADD10C,0.100000*%
%TD*%
G04 APERTURE END LIST*
D10*
X25527000Y-192913000D02*
X32512000Y-192913000D01*
X88900000Y-182880000D02*
X91948000Y-182880000D01*
X107545000Y-59690000D02*
G75*
G03*
X107545000Y-59690000I-1500000J0D01*
G01*
X35560000Y-182880000D02*
X35560000Y-194945000D01*
X25527000Y-192913000D02*
X25527000Y-200787000D01*
X60960001Y-132080000D02*
G75*
G03*
X60960001Y-132080000I-1J0D01*
G01*
X35560000Y-194945000D02*
X88900000Y-194945000D01*
X13081000Y-191935000D02*
X21590000Y-200787000D01*
X91948000Y-192913000D02*
X91948000Y-182880000D01*
X88900000Y-182880000D02*
X88900000Y-194945000D01*
X19788000Y-59690000D02*
G75*
G03*
X19788000Y-59690000I-1500000J0D01*
G01*
X91948000Y-192913000D02*
X98933000Y-192913000D01*
X66040000Y-151638000D02*
G75*
G03*
X66040000Y-151638000I-3810000J0D01*
G01*
X98933000Y-200787000D02*
X102870000Y-200787000D01*
X13081000Y-50038000D02*
X111379000Y-50000000D01*
X111379000Y-50000000D02*
X111379000Y-191897000D01*
X21590000Y-200787000D02*
X25527000Y-200787000D01*
X102870000Y-200787000D02*
X111379000Y-191897000D01*
X98933000Y-192913000D02*
X98933000Y-200787000D01*
X32512000Y-182880000D02*
X35560000Y-182880000D01*
X13081000Y-191935000D02*
X13081000Y-50038000D01*
X32512000Y-192913000D02*
X32512000Y-182880000D01*
M02*
