%TF.GenerationSoftware,KiCad,Pcbnew,6.0.7-f9a2dced07~116~ubuntu20.04.1*%
%TF.CreationDate,2022-11-25T09:54:27-05:00*%
%TF.ProjectId,6551usb,36353531-7573-4622-9e6b-696361645f70,1.04*%
%TF.SameCoordinates,Original*%
%TF.FileFunction,Soldermask,Top*%
%TF.FilePolarity,Negative*%
%FSLAX46Y46*%
G04 Gerber Fmt 4.6, Leading zero omitted, Abs format (unit mm)*
G04 Created by KiCad (PCBNEW 6.0.7-f9a2dced07~116~ubuntu20.04.1) date 2022-11-25 09:54:27*
%MOMM*%
%LPD*%
G01*
G04 APERTURE LIST*
G04 Aperture macros list*
%AMRoundRect*
0 Rectangle with rounded corners*
0 $1 Rounding radius*
0 $2 $3 $4 $5 $6 $7 $8 $9 X,Y pos of 4 corners*
0 Add a 4 corners polygon primitive as box body*
4,1,4,$2,$3,$4,$5,$6,$7,$8,$9,$2,$3,0*
0 Add four circle primitives for the rounded corners*
1,1,$1+$1,$2,$3*
1,1,$1+$1,$4,$5*
1,1,$1+$1,$6,$7*
1,1,$1+$1,$8,$9*
0 Add four rect primitives between the rounded corners*
20,1,$1+$1,$2,$3,$4,$5,0*
20,1,$1+$1,$4,$5,$6,$7,0*
20,1,$1+$1,$6,$7,$8,$9,0*
20,1,$1+$1,$8,$9,$2,$3,0*%
G04 Aperture macros list end*
%ADD10C,0.150000*%
%ADD11RoundRect,0.317500X-0.317500X-4.682500X0.317500X-4.682500X0.317500X4.682500X-0.317500X4.682500X0*%
%ADD12C,1.600000*%
%ADD13O,1.600000X1.600000*%
%ADD14R,1.600000X1.600000*%
%ADD15R,1.700000X1.700000*%
%ADD16O,1.700000X1.700000*%
G04 APERTURE END LIST*
D10*
X13081000Y-50292000D02*
X23114000Y-50292000D01*
X23114000Y-50292000D02*
X23114000Y-64262000D01*
X23114000Y-64262000D02*
X13081000Y-64262000D01*
X13081000Y-64262000D02*
X13081000Y-50292000D01*
G36*
X13081000Y-50292000D02*
G01*
X23114000Y-50292000D01*
X23114000Y-64262000D01*
X13081000Y-64262000D01*
X13081000Y-50292000D01*
G37*
X101473000Y-50165000D02*
X111506000Y-50165000D01*
X111506000Y-50165000D02*
X111506000Y-64135000D01*
X111506000Y-64135000D02*
X101473000Y-64135000D01*
X101473000Y-64135000D02*
X101473000Y-50165000D01*
G36*
X101473000Y-50165000D02*
G01*
X111506000Y-50165000D01*
X111506000Y-64135000D01*
X101473000Y-64135000D01*
X101473000Y-50165000D01*
G37*
X18415000Y-58420000D02*
X18415000Y-58420000D01*
X18415000Y-58420000D02*
X18415000Y-58420000D01*
X18415000Y-58420000D02*
X18415000Y-58420000D01*
X18415000Y-58420000D02*
X18415000Y-58420000D01*
D11*
%TO.C,U17*%
X38100000Y-189611000D03*
X40640000Y-189611000D03*
X43180000Y-189611000D03*
X45720000Y-189611000D03*
X48260000Y-189611000D03*
X50800000Y-189611000D03*
X53340000Y-189611000D03*
X55880000Y-189611000D03*
X58420000Y-189611000D03*
X60960000Y-189611000D03*
X63500000Y-189611000D03*
X66040000Y-189611000D03*
X68580000Y-189611000D03*
X71120000Y-189611000D03*
X73660000Y-189611000D03*
X76200000Y-189611000D03*
X78740000Y-189611000D03*
X81280000Y-189611000D03*
X83820000Y-189611000D03*
X86360000Y-189611000D03*
%TD*%
D12*
%TO.C,C15*%
X43815000Y-88900000D03*
D13*
X43815000Y-96400000D03*
%TD*%
D12*
%TO.C,C14*%
X78740000Y-101600000D03*
D13*
X78740000Y-109100000D03*
%TD*%
D14*
%TO.C,U13*%
X83820000Y-83820000D03*
D13*
X86360000Y-83820000D03*
X88900000Y-83820000D03*
X91440000Y-83820000D03*
X93980000Y-83820000D03*
X96520000Y-83820000D03*
X99060000Y-83820000D03*
X101600000Y-83820000D03*
X104140000Y-83820000D03*
X106680000Y-83820000D03*
X106680000Y-76200000D03*
X104140000Y-76200000D03*
X101600000Y-76200000D03*
X99060000Y-76200000D03*
X96520000Y-76200000D03*
X93980000Y-76200000D03*
X91440000Y-76200000D03*
X88900000Y-76200000D03*
X86360000Y-76200000D03*
X83820000Y-76200000D03*
%TD*%
D14*
%TO.C,U11*%
X22855000Y-88890000D03*
D13*
X25395000Y-88890000D03*
X27935000Y-88890000D03*
X30475000Y-88890000D03*
X33015000Y-88890000D03*
X35555000Y-88890000D03*
X38095000Y-88890000D03*
X38095000Y-81270000D03*
X35555000Y-81270000D03*
X33015000Y-81270000D03*
X30475000Y-81270000D03*
X27935000Y-81270000D03*
X25395000Y-81270000D03*
X22855000Y-81270000D03*
%TD*%
D14*
%TO.C,U9*%
X46990000Y-173990000D03*
D13*
X49530000Y-173990000D03*
X52070000Y-173990000D03*
X54610000Y-173990000D03*
X57150000Y-173990000D03*
X59690000Y-173990000D03*
X62230000Y-173990000D03*
X64770000Y-173990000D03*
X67310000Y-173990000D03*
X69850000Y-173990000D03*
X72390000Y-173990000D03*
X74930000Y-173990000D03*
X77470000Y-173990000D03*
X80010000Y-173990000D03*
X80010000Y-158750000D03*
X77470000Y-158750000D03*
X74930000Y-158750000D03*
X72390000Y-158750000D03*
X69850000Y-158750000D03*
X67310000Y-158750000D03*
X64770000Y-158750000D03*
X62230000Y-158750000D03*
X59690000Y-158750000D03*
X57150000Y-158750000D03*
X54610000Y-158750000D03*
X52070000Y-158750000D03*
X49530000Y-158750000D03*
X46990000Y-158750000D03*
%TD*%
D14*
%TO.C,U16*%
X83820000Y-96520000D03*
D13*
X86360000Y-96520000D03*
X88900000Y-96520000D03*
X91440000Y-96520000D03*
X93980000Y-96520000D03*
X96520000Y-96520000D03*
X99060000Y-96520000D03*
X101600000Y-96520000D03*
X104140000Y-96520000D03*
X106680000Y-96520000D03*
X106680000Y-88900000D03*
X104140000Y-88900000D03*
X101600000Y-88900000D03*
X99060000Y-88900000D03*
X96520000Y-88900000D03*
X93980000Y-88900000D03*
X91440000Y-88900000D03*
X88900000Y-88900000D03*
X86360000Y-88900000D03*
X83820000Y-88900000D03*
%TD*%
D14*
%TO.C,U1*%
X53340000Y-137160000D03*
D13*
X55880000Y-137160000D03*
X58420000Y-137160000D03*
X60960000Y-137160000D03*
X63500000Y-137160000D03*
X66040000Y-137160000D03*
X68580000Y-137160000D03*
X68580000Y-129540000D03*
X66040000Y-129540000D03*
X63500000Y-129540000D03*
X60960000Y-129540000D03*
X58420000Y-129540000D03*
X55880000Y-129540000D03*
X53340000Y-129540000D03*
%TD*%
D12*
%TO.C,C3*%
X48255000Y-101590000D03*
D13*
X48255000Y-109090000D03*
%TD*%
D14*
%TO.C,SW1*%
X104648000Y-142621000D03*
D13*
X102108000Y-142621000D03*
X99568000Y-142621000D03*
X97028000Y-142621000D03*
X94488000Y-142621000D03*
X91948000Y-142621000D03*
X91948000Y-150241000D03*
X94488000Y-150241000D03*
X97028000Y-150241000D03*
X99568000Y-150241000D03*
X102108000Y-150241000D03*
X104648000Y-150241000D03*
%TD*%
D12*
%TO.C,C7*%
X78740000Y-115570000D03*
D13*
X78740000Y-123070000D03*
%TD*%
D12*
%TO.C,R1*%
X79959200Y-67310000D03*
D13*
X79959200Y-59690000D03*
%TD*%
D14*
%TO.C,U12*%
X22860000Y-147320000D03*
D13*
X25400000Y-147320000D03*
X27940000Y-147320000D03*
X30480000Y-147320000D03*
X33020000Y-147320000D03*
X35560000Y-147320000D03*
X38100000Y-147320000D03*
X38100000Y-139700000D03*
X35560000Y-139700000D03*
X33020000Y-139700000D03*
X30480000Y-139700000D03*
X27940000Y-139700000D03*
X25400000Y-139700000D03*
X22860000Y-139700000D03*
%TD*%
D12*
%TO.C,C8*%
X17780000Y-67320000D03*
D13*
X17780000Y-74820000D03*
%TD*%
D12*
%TO.C,C1*%
X48260000Y-129540000D03*
D13*
X48260000Y-137040000D03*
%TD*%
D14*
%TO.C,U3*%
X53335000Y-109210000D03*
D13*
X55875000Y-109210000D03*
X58415000Y-109210000D03*
X60955000Y-109210000D03*
X63495000Y-109210000D03*
X66035000Y-109210000D03*
X68575000Y-109210000D03*
X68575000Y-101590000D03*
X66035000Y-101590000D03*
X63495000Y-101590000D03*
X60955000Y-101590000D03*
X58415000Y-101590000D03*
X55875000Y-101590000D03*
X53335000Y-101590000D03*
%TD*%
D12*
%TO.C,R3*%
X26670000Y-130175000D03*
D13*
X34290000Y-130175000D03*
%TD*%
D14*
%TO.C,U4*%
X83820000Y-137160000D03*
D13*
X86360000Y-137160000D03*
X88900000Y-137160000D03*
X91440000Y-137160000D03*
X93980000Y-137160000D03*
X96520000Y-137160000D03*
X99060000Y-137160000D03*
X101600000Y-137160000D03*
X104140000Y-137160000D03*
X106680000Y-137160000D03*
X106680000Y-129540000D03*
X104140000Y-129540000D03*
X101600000Y-129540000D03*
X99060000Y-129540000D03*
X96520000Y-129540000D03*
X93980000Y-129540000D03*
X91440000Y-129540000D03*
X88900000Y-129540000D03*
X86360000Y-129540000D03*
X83820000Y-129540000D03*
%TD*%
D14*
%TO.C,U14*%
X83820000Y-109220000D03*
D13*
X86360000Y-109220000D03*
X88900000Y-109220000D03*
X91440000Y-109220000D03*
X93980000Y-109220000D03*
X96520000Y-109220000D03*
X99060000Y-109220000D03*
X101600000Y-109220000D03*
X104140000Y-109220000D03*
X106680000Y-109220000D03*
X106680000Y-101600000D03*
X104140000Y-101600000D03*
X101600000Y-101600000D03*
X99060000Y-101600000D03*
X96520000Y-101600000D03*
X93980000Y-101600000D03*
X91440000Y-101600000D03*
X88900000Y-101600000D03*
X86360000Y-101600000D03*
X83820000Y-101600000D03*
%TD*%
D12*
%TO.C,C9*%
X42164000Y-162555000D03*
D13*
X42164000Y-170055000D03*
%TD*%
D12*
%TO.C,C2*%
X86360000Y-162560000D03*
D13*
X86360000Y-170060000D03*
%TD*%
D12*
%TO.C,C12*%
X18034000Y-139700000D03*
D13*
X18034000Y-147200000D03*
%TD*%
D12*
%TO.C,C13*%
X78740000Y-76200000D03*
D13*
X78740000Y-83700000D03*
%TD*%
D14*
%TO.C,U15*%
X48900000Y-96520000D03*
D13*
X51440000Y-96520000D03*
X53980000Y-96520000D03*
X56520000Y-96520000D03*
X59060000Y-96520000D03*
X61600000Y-96520000D03*
X64140000Y-96520000D03*
X66680000Y-96520000D03*
X69220000Y-96520000D03*
X71760000Y-96520000D03*
X71760000Y-88900000D03*
X69220000Y-88900000D03*
X66680000Y-88900000D03*
X64140000Y-88900000D03*
X61600000Y-88900000D03*
X59060000Y-88900000D03*
X56520000Y-88900000D03*
X53980000Y-88900000D03*
X51440000Y-88900000D03*
X48900000Y-88900000D03*
%TD*%
D14*
%TO.C,U10*%
X22860000Y-102860000D03*
D13*
X25400000Y-102860000D03*
X27940000Y-102860000D03*
X30480000Y-102860000D03*
X33020000Y-102860000D03*
X35560000Y-102860000D03*
X38100000Y-102860000D03*
X38100000Y-95240000D03*
X35560000Y-95240000D03*
X33020000Y-95240000D03*
X30480000Y-95240000D03*
X27940000Y-95240000D03*
X25400000Y-95240000D03*
X22860000Y-95240000D03*
%TD*%
D12*
%TO.C,C5*%
X48260000Y-115570000D03*
D13*
X48260000Y-123070000D03*
%TD*%
D12*
%TO.C,C6*%
X17780000Y-110490000D03*
D13*
X17780000Y-117990000D03*
%TD*%
D15*
%TO.C,J1*%
X35560000Y-163830000D03*
D16*
X35560000Y-166370000D03*
X35560000Y-168910000D03*
%TD*%
D12*
%TO.C,C17*%
X76000000Y-59690000D03*
D13*
X76000000Y-67190000D03*
%TD*%
D14*
%TO.C,U6*%
X22860000Y-118100000D03*
D13*
X25400000Y-118100000D03*
X27940000Y-118100000D03*
X30480000Y-118100000D03*
X33020000Y-118100000D03*
X35560000Y-118100000D03*
X38100000Y-118100000D03*
X38100000Y-110480000D03*
X35560000Y-110480000D03*
X33020000Y-110480000D03*
X30480000Y-110480000D03*
X27940000Y-110480000D03*
X25400000Y-110480000D03*
X22860000Y-110480000D03*
%TD*%
D12*
%TO.C,C10*%
X17785000Y-95250000D03*
D13*
X17785000Y-102750000D03*
%TD*%
D12*
%TO.C,R4*%
X26670000Y-135255000D03*
D13*
X34290000Y-135255000D03*
%TD*%
D14*
%TO.C,U7*%
X83820000Y-123200000D03*
D13*
X86360000Y-123200000D03*
X88900000Y-123200000D03*
X91440000Y-123200000D03*
X93980000Y-123200000D03*
X96520000Y-123200000D03*
X99060000Y-123200000D03*
X99060000Y-115580000D03*
X96520000Y-115580000D03*
X93980000Y-115580000D03*
X91440000Y-115580000D03*
X88900000Y-115580000D03*
X86360000Y-115580000D03*
X83820000Y-115580000D03*
%TD*%
D14*
%TO.C,U5*%
X53340000Y-123190000D03*
D13*
X55880000Y-123190000D03*
X58420000Y-123190000D03*
X60960000Y-123190000D03*
X63500000Y-123190000D03*
X66040000Y-123190000D03*
X68580000Y-123190000D03*
X68580000Y-115570000D03*
X66040000Y-115570000D03*
X63500000Y-115570000D03*
X60960000Y-115570000D03*
X58420000Y-115570000D03*
X55880000Y-115570000D03*
X53340000Y-115570000D03*
%TD*%
D12*
%TO.C,R2*%
X34290000Y-125095000D03*
D13*
X26670000Y-125095000D03*
%TD*%
D14*
%TO.C,U8*%
X22855000Y-74930000D03*
D13*
X25395000Y-74930000D03*
X27935000Y-74930000D03*
X30475000Y-74930000D03*
X33015000Y-74930000D03*
X35555000Y-74930000D03*
X38095000Y-74930000D03*
X38095000Y-67310000D03*
X35555000Y-67310000D03*
X33015000Y-67310000D03*
X30475000Y-67310000D03*
X27935000Y-67310000D03*
X25395000Y-67310000D03*
X22855000Y-67310000D03*
%TD*%
D12*
%TO.C,C4*%
X78740000Y-129540000D03*
D13*
X78740000Y-137040000D03*
%TD*%
D12*
%TO.C,C16*%
X78740000Y-88900000D03*
D13*
X78740000Y-96400000D03*
%TD*%
D14*
%TO.C,U2*%
X91435000Y-170170000D03*
D13*
X93975000Y-170170000D03*
X96515000Y-170170000D03*
X99055000Y-170170000D03*
X101595000Y-170170000D03*
X104135000Y-170170000D03*
X106675000Y-170170000D03*
X106675000Y-162550000D03*
X104135000Y-162550000D03*
X101595000Y-162550000D03*
X99055000Y-162550000D03*
X96515000Y-162550000D03*
X93975000Y-162550000D03*
X91435000Y-162550000D03*
%TD*%
D14*
%TO.C,P1*%
X69840000Y-72150000D03*
D13*
X69840000Y-69610000D03*
X69840000Y-67070000D03*
X69840000Y-64530000D03*
X69840000Y-61990000D03*
X69840000Y-59450000D03*
X69840000Y-56910000D03*
X69840000Y-54370000D03*
X69840000Y-51830000D03*
X62220000Y-51830000D03*
X62220000Y-54370000D03*
X62220000Y-56910000D03*
X62220000Y-59450000D03*
X62220000Y-61990000D03*
X62220000Y-64530000D03*
X62220000Y-67070000D03*
X62220000Y-69610000D03*
X62220000Y-72150000D03*
%TD*%
D12*
%TO.C,C11*%
X17775000Y-81280000D03*
D13*
X17775000Y-88780000D03*
%TD*%
M02*
