M48
; DRILL file {KiCad 6.0.7-f9a2dced07~116~ubuntu20.04.1} date Fri 25 Nov 2022 09:54:20 AM EST
; FORMAT={-:-/ absolute / inch / decimal}
; #@! TF.CreationDate,2022-11-25T09:54:20-05:00
; #@! TF.GenerationSoftware,Kicad,Pcbnew,6.0.7-f9a2dced07~116~ubuntu20.04.1
; #@! TF.FileFunction,Plated,1,2,PTH
FMAT,2
INCH
; #@! TA.AperFunction,Plated,PTH,ViaDrill
T1C0.0157
; #@! TA.AperFunction,Plated,PTH,ComponentDrill
T2C0.0315
; #@! TA.AperFunction,Plated,PTH,ComponentDrill
T3C0.0394
%
G90
G05
T1
X1.7276Y-7.1353
X1.8676Y-3.6801
X1.9139Y-3.6832
X2.0793Y-6.794
X2.1044Y-6.9541
X2.4482Y-7.1281
X2.4483Y-7.0864
X2.4861Y-6.7391
X2.5342Y-6.9912
X2.5419Y-6.1948
X2.6Y-7.0197
X2.6917Y-6.1548
X2.6981Y-6.2156
X2.7Y-6.7764
X2.7551Y-3.9378
X2.7715Y-6.6875
X2.8009Y-6.6085
X2.8032Y-6.1581
X2.8144Y-5.7484
X2.8311Y-5.8335
X2.85Y-6.6403
X2.8709Y-6.3963
X2.8978Y-6.79
X3.0012Y-6.5307
X3.0199Y-6.9323
X3.2102Y-3.9495
X3.2573Y-4.7043
X3.2857Y-6.7824
X3.2973Y-5.0395
X3.3079Y-6.6364
X3.3499Y-5.1587
T2
X0.6998Y-3.2
X0.6998Y-3.4953
X0.7Y-2.6504
X0.7Y-2.9457
X0.7Y-4.35
X0.7Y-4.6453
X0.7002Y-3.75
X0.7002Y-4.0453
X0.71Y-5.5
X0.71Y-5.7953
X0.8998Y-2.65
X0.8998Y-2.95
X0.8998Y-3.1996
X0.8998Y-3.4996
X0.9Y-3.7496
X0.9Y-4.0496
X0.9Y-4.3496
X0.9Y-4.6496
X0.9Y-5.5
X0.9Y-5.8
X0.9998Y-2.65
X0.9998Y-2.95
X0.9998Y-3.1996
X0.9998Y-3.4996
X1.0Y-3.7496
X1.0Y-4.0496
X1.0Y-4.3496
X1.0Y-4.6496
X1.0Y-5.5
X1.0Y-5.8
X1.05Y-4.925
X1.05Y-5.125
X1.05Y-5.325
X1.0998Y-2.65
X1.0998Y-2.95
X1.0998Y-3.1996
X1.0998Y-3.4996
X1.1Y-3.7496
X1.1Y-4.0496
X1.1Y-4.3496
X1.1Y-4.6496
X1.1Y-5.5
X1.1Y-5.8
X1.1998Y-2.65
X1.1998Y-2.95
X1.1998Y-3.1996
X1.1998Y-3.4996
X1.2Y-3.7496
X1.2Y-4.0496
X1.2Y-4.3496
X1.2Y-4.6496
X1.2Y-5.5
X1.2Y-5.8
X1.2998Y-2.65
X1.2998Y-2.95
X1.2998Y-3.1996
X1.2998Y-3.4996
X1.3Y-3.7496
X1.3Y-4.0496
X1.3Y-4.3496
X1.3Y-4.6496
X1.3Y-5.5
X1.3Y-5.8
X1.35Y-4.925
X1.35Y-5.125
X1.35Y-5.325
X1.3998Y-2.65
X1.3998Y-2.95
X1.3998Y-3.1996
X1.3998Y-3.4996
X1.4Y-3.7496
X1.4Y-4.0496
X1.4Y-4.3496
X1.4Y-4.6496
X1.4Y-5.5
X1.4Y-5.8
X1.4998Y-2.65
X1.4998Y-2.95
X1.4998Y-3.1996
X1.4998Y-3.4996
X1.5Y-3.7496
X1.5Y-4.0496
X1.5Y-4.3496
X1.5Y-4.6496
X1.5Y-5.5
X1.5Y-5.8
X1.66Y-6.3998
X1.66Y-6.6951
X1.725Y-3.5
X1.725Y-3.7953
X1.85Y-6.25
X1.85Y-6.85
X1.8998Y-3.9996
X1.8998Y-4.2949
X1.9Y-4.55
X1.9Y-4.8453
X1.9Y-5.1
X1.9Y-5.3953
X1.9252Y-3.5
X1.9252Y-3.8
X1.95Y-6.25
X1.95Y-6.85
X2.0252Y-3.5
X2.0252Y-3.8
X2.05Y-6.25
X2.05Y-6.85
X2.0998Y-3.9996
X2.0998Y-4.2996
X2.1Y-4.55
X2.1Y-4.85
X2.1Y-5.1
X2.1Y-5.4
X2.1252Y-3.5
X2.1252Y-3.8
X2.15Y-6.25
X2.15Y-6.85
X2.1998Y-3.9996
X2.1998Y-4.2996
X2.2Y-4.55
X2.2Y-4.85
X2.2Y-5.1
X2.2Y-5.4
X2.2252Y-3.5
X2.2252Y-3.8
X2.25Y-6.25
X2.25Y-6.85
X2.2998Y-3.9996
X2.2998Y-4.2996
X2.3Y-4.55
X2.3Y-4.85
X2.3Y-5.1
X2.3Y-5.4
X2.3252Y-3.5
X2.3252Y-3.8
X2.35Y-6.25
X2.35Y-6.85
X2.3998Y-3.9996
X2.3998Y-4.2996
X2.4Y-4.55
X2.4Y-4.85
X2.4Y-5.1
X2.4Y-5.4
X2.4252Y-3.5
X2.4252Y-3.8
X2.4496Y-2.0406
X2.4496Y-2.1406
X2.4496Y-2.2406
X2.4496Y-2.3406
X2.4496Y-2.4406
X2.4496Y-2.5406
X2.4496Y-2.6406
X2.4496Y-2.7406
X2.4496Y-2.8406
X2.45Y-6.25
X2.45Y-6.85
X2.4998Y-3.9996
X2.4998Y-4.2996
X2.5Y-4.55
X2.5Y-4.85
X2.5Y-5.1
X2.5Y-5.4
X2.5252Y-3.5
X2.5252Y-3.8
X2.55Y-6.25
X2.55Y-6.85
X2.5998Y-3.9996
X2.5998Y-4.2996
X2.6Y-4.55
X2.6Y-4.85
X2.6Y-5.1
X2.6Y-5.4
X2.6252Y-3.5
X2.6252Y-3.8
X2.65Y-6.25
X2.65Y-6.85
X2.6998Y-3.9996
X2.6998Y-4.2996
X2.7Y-4.55
X2.7Y-4.85
X2.7Y-5.1
X2.7Y-5.4
X2.7252Y-3.5
X2.7252Y-3.8
X2.7496Y-2.0406
X2.7496Y-2.1406
X2.7496Y-2.2406
X2.7496Y-2.3406
X2.7496Y-2.4406
X2.7496Y-2.5406
X2.7496Y-2.6406
X2.7496Y-2.7406
X2.7496Y-2.8406
X2.75Y-6.25
X2.75Y-6.85
X2.8252Y-3.5
X2.8252Y-3.8
X2.85Y-6.25
X2.85Y-6.85
X2.95Y-6.25
X2.95Y-6.85
X2.9921Y-2.35
X2.9921Y-2.6453
X3.05Y-6.25
X3.05Y-6.85
X3.1Y-3.0
X3.1Y-3.2953
X3.1Y-3.5
X3.1Y-3.7953
X3.1Y-4.0
X3.1Y-4.2953
X3.1Y-4.55
X3.1Y-4.8453
X3.1Y-5.1
X3.1Y-5.3953
X3.148Y-2.35
X3.148Y-2.65
X3.15Y-6.25
X3.15Y-6.85
X3.3Y-3.0
X3.3Y-3.3
X3.3Y-3.5
X3.3Y-3.8
X3.3Y-4.0
X3.3Y-4.3
X3.3Y-4.5504
X3.3Y-4.8504
X3.3Y-5.1
X3.3Y-5.4
X3.4Y-3.0
X3.4Y-3.3
X3.4Y-3.5
X3.4Y-3.8
X3.4Y-4.0
X3.4Y-4.3
X3.4Y-4.5504
X3.4Y-4.8504
X3.4Y-5.1
X3.4Y-5.4
X3.4Y-6.4
X3.4Y-6.6953
X3.5Y-3.0
X3.5Y-3.3
X3.5Y-3.5
X3.5Y-3.8
X3.5Y-4.0
X3.5Y-4.3
X3.5Y-4.5504
X3.5Y-4.8504
X3.5Y-5.1
X3.5Y-5.4
X3.5998Y-6.3996
X3.5998Y-6.6996
X3.6Y-3.0
X3.6Y-3.3
X3.6Y-3.5
X3.6Y-3.8
X3.6Y-4.0
X3.6Y-4.3
X3.6Y-4.5504
X3.6Y-4.8504
X3.6Y-5.1
X3.6Y-5.4
X3.62Y-5.615
X3.62Y-5.915
X3.6998Y-6.3996
X3.6998Y-6.6996
X3.7Y-3.0
X3.7Y-3.3
X3.7Y-3.5
X3.7Y-3.8
X3.7Y-4.0
X3.7Y-4.3
X3.7Y-4.5504
X3.7Y-4.8504
X3.7Y-5.1
X3.7Y-5.4
X3.72Y-5.615
X3.72Y-5.915
X3.7998Y-6.3996
X3.7998Y-6.6996
X3.8Y-3.0
X3.8Y-3.3
X3.8Y-3.5
X3.8Y-3.8
X3.8Y-4.0
X3.8Y-4.3
X3.8Y-4.5504
X3.8Y-4.8504
X3.8Y-5.1
X3.8Y-5.4
X3.82Y-5.615
X3.82Y-5.915
X3.8998Y-6.3996
X3.8998Y-6.6996
X3.9Y-3.0
X3.9Y-3.3
X3.9Y-3.5
X3.9Y-3.8
X3.9Y-4.0
X3.9Y-4.3
X3.9Y-4.5504
X3.9Y-4.8504
X3.9Y-5.1
X3.9Y-5.4
X3.92Y-5.615
X3.92Y-5.915
X3.9998Y-6.3996
X3.9998Y-6.6996
X4.0Y-3.0
X4.0Y-3.3
X4.0Y-3.5
X4.0Y-3.8
X4.0Y-4.0
X4.0Y-4.3
X4.0Y-5.1
X4.0Y-5.4
X4.02Y-5.615
X4.02Y-5.915
X4.0998Y-6.3996
X4.0998Y-6.6996
X4.1Y-3.0
X4.1Y-3.3
X4.1Y-3.5
X4.1Y-3.8
X4.1Y-4.0
X4.1Y-4.3
X4.1Y-5.1
X4.1Y-5.4
X4.12Y-5.615
X4.12Y-5.915
X4.1998Y-6.3996
X4.1998Y-6.6996
X4.2Y-3.0
X4.2Y-3.3
X4.2Y-3.5
X4.2Y-3.8
X4.2Y-4.0
X4.2Y-4.3
X4.2Y-5.1
X4.2Y-5.4
T3
X1.4Y-6.45
X1.4Y-6.55
X1.4Y-6.65
T0
M30
