M48
; DRILL file {KiCad (6.0.7-1)-1} date Thursday, October 20, 2022 at 04:04:35 PM
; FORMAT={-:-/ absolute / inch / decimal}
; #@! TF.CreationDate,2022-10-20T16:04:35-04:00
; #@! TF.GenerationSoftware,Kicad,Pcbnew,(6.0.7-1)-1
; #@! TF.FileFunction,Plated,1,2,PTH
FMAT,2
INCH
; #@! TA.AperFunction,Plated,PTH,ViaDrill
T1C0.0157
; #@! TA.AperFunction,Plated,PTH,ComponentDrill
T2C0.0315
; #@! TA.AperFunction,Plated,PTH,ComponentDrill
T3C0.0394
%
G90
G05
T1
X1.5936Y-4.7565
X1.6525Y-6.9382
X1.8538Y-4.4929
X1.9531Y-6.7766
X2.0474Y-6.917
X2.0709Y-5.2585
X2.1191Y-7.2264
X2.1294Y-6.6449
X2.2589Y-4.9157
X2.3625Y-3.628
X2.4052Y-6.9402
X2.4476Y-6.4714
X2.477Y-7.0875
X2.5073Y-6.9231
X2.5884Y-7.0585
X2.6149Y-6.1036
X2.6152Y-7.1251
X2.6553Y-6.7472
X2.6644Y-3.134
X2.6728Y-4.0969
X2.7042Y-6.5664
X2.7659Y-6.4779
X2.7832Y-3.866
X2.7908Y-4.8029
X2.796Y-6.5964
X2.8075Y-6.147
X2.8217Y-4.5874
X2.8751Y-6.7849
X2.9Y-6.0056
X2.9033Y-6.5327
X2.9037Y-6.9906
X2.9347Y-6.674
X2.9448Y-6.6141
X2.9677Y-4.1693
X2.9677Y-5.0846
X2.9746Y-6.7679
X3.0042Y-6.9498
X3.0225Y-3.8692
X3.0281Y-6.5847
X3.0581Y-6.7186
X3.1057Y-6.7839
X3.1239Y-5.4513
X3.35Y-3.6651
X3.5184Y-5.8594
X3.6522Y-3.4301
X3.8604Y-6.7617
T2
X0.6998Y-3.2
X0.6998Y-3.4953
X0.7Y-2.6504
X0.7Y-2.9457
X0.7Y-4.35
X0.7Y-4.6453
X0.7002Y-3.75
X0.7002Y-4.0453
X0.71Y-5.5
X0.71Y-5.7953
X0.8998Y-2.65
X0.8998Y-2.95
X0.8998Y-3.1996
X0.8998Y-3.4996
X0.9Y-3.7496
X0.9Y-4.0496
X0.9Y-4.3496
X0.9Y-4.6496
X0.9Y-5.5
X0.9Y-5.8
X0.9998Y-2.65
X0.9998Y-2.95
X0.9998Y-3.1996
X0.9998Y-3.4996
X1.0Y-3.7496
X1.0Y-4.0496
X1.0Y-4.3496
X1.0Y-4.6496
X1.0Y-5.5
X1.0Y-5.8
X1.05Y-4.925
X1.05Y-5.125
X1.05Y-5.325
X1.0998Y-2.65
X1.0998Y-2.95
X1.0998Y-3.1996
X1.0998Y-3.4996
X1.1Y-3.7496
X1.1Y-4.0496
X1.1Y-4.3496
X1.1Y-4.6496
X1.1Y-5.5
X1.1Y-5.8
X1.1998Y-2.65
X1.1998Y-2.95
X1.1998Y-3.1996
X1.1998Y-3.4996
X1.2Y-3.7496
X1.2Y-4.0496
X1.2Y-4.3496
X1.2Y-4.6496
X1.2Y-5.5
X1.2Y-5.8
X1.2998Y-2.65
X1.2998Y-2.95
X1.2998Y-3.1996
X1.2998Y-3.4996
X1.3Y-3.7496
X1.3Y-4.0496
X1.3Y-4.3496
X1.3Y-4.6496
X1.3Y-5.5
X1.3Y-5.8
X1.35Y-4.925
X1.35Y-5.125
X1.35Y-5.325
X1.3998Y-2.65
X1.3998Y-2.95
X1.3998Y-3.1996
X1.3998Y-3.4996
X1.4Y-3.7496
X1.4Y-4.0496
X1.4Y-4.3496
X1.4Y-4.6496
X1.4Y-5.5
X1.4Y-5.8
X1.4998Y-2.65
X1.4998Y-2.95
X1.4998Y-3.1996
X1.4998Y-3.4996
X1.5Y-3.7496
X1.5Y-4.0496
X1.5Y-4.3496
X1.5Y-4.6496
X1.5Y-5.5
X1.5Y-5.8
X1.66Y-6.3998
X1.66Y-6.6951
X1.725Y-3.5
X1.725Y-3.7953
X1.85Y-6.25
X1.85Y-6.85
X1.8998Y-3.9996
X1.8998Y-4.2949
X1.9Y-4.55
X1.9Y-4.8453
X1.9Y-5.1
X1.9Y-5.3953
X1.9252Y-3.5
X1.9252Y-3.8
X1.95Y-6.25
X1.95Y-6.85
X2.0252Y-3.5
X2.0252Y-3.8
X2.05Y-6.25
X2.05Y-6.85
X2.0998Y-3.9996
X2.0998Y-4.2996
X2.1Y-4.55
X2.1Y-4.85
X2.1Y-5.1
X2.1Y-5.4
X2.1252Y-3.5
X2.1252Y-3.8
X2.15Y-6.25
X2.15Y-6.85
X2.1998Y-3.9996
X2.1998Y-4.2996
X2.2Y-4.55
X2.2Y-4.85
X2.2Y-5.1
X2.2Y-5.4
X2.2252Y-3.5
X2.2252Y-3.8
X2.25Y-6.25
X2.25Y-6.85
X2.2998Y-3.9996
X2.2998Y-4.2996
X2.3Y-4.55
X2.3Y-4.85
X2.3Y-5.1
X2.3Y-5.4
X2.3252Y-3.5
X2.3252Y-3.8
X2.35Y-6.25
X2.35Y-6.85
X2.3998Y-3.9996
X2.3998Y-4.2996
X2.4Y-4.55
X2.4Y-4.85
X2.4Y-5.1
X2.4Y-5.4
X2.4252Y-3.5
X2.4252Y-3.8
X2.4496Y-2.2496
X2.4496Y-2.3496
X2.4496Y-2.4496
X2.4496Y-2.5496
X2.4496Y-2.6496
X2.4496Y-2.7496
X2.4496Y-2.8496
X2.4496Y-2.9496
X2.4496Y-3.0496
X2.45Y-6.25
X2.45Y-6.85
X2.4998Y-3.9996
X2.4998Y-4.2996
X2.5Y-4.55
X2.5Y-4.85
X2.5Y-5.1
X2.5Y-5.4
X2.5252Y-3.5
X2.5252Y-3.8
X2.55Y-6.25
X2.55Y-6.85
X2.5998Y-3.9996
X2.5998Y-4.2996
X2.6Y-4.55
X2.6Y-4.85
X2.6Y-5.1
X2.6Y-5.4
X2.6252Y-3.5
X2.6252Y-3.8
X2.65Y-6.25
X2.65Y-6.85
X2.6998Y-3.9996
X2.6998Y-4.2996
X2.7Y-4.55
X2.7Y-4.85
X2.7Y-5.1
X2.7Y-5.4
X2.7252Y-3.5
X2.7252Y-3.8
X2.7496Y-2.2496
X2.7496Y-2.3496
X2.7496Y-2.4496
X2.7496Y-2.5496
X2.7496Y-2.6496
X2.7496Y-2.7496
X2.7496Y-2.8496
X2.7496Y-2.9496
X2.7496Y-3.0496
X2.75Y-6.25
X2.75Y-6.85
X2.8252Y-3.5
X2.8252Y-3.8
X2.85Y-6.25
X2.85Y-6.85
X2.95Y-6.25
X2.95Y-6.85
X2.975Y-2.4524
X2.975Y-2.7476
X3.05Y-6.25
X3.05Y-6.85
X3.1Y-3.0
X3.1Y-3.2953
X3.1Y-3.5
X3.1Y-3.7953
X3.1Y-4.0
X3.1Y-4.2953
X3.1Y-4.55
X3.1Y-4.8453
X3.1Y-5.1
X3.1Y-5.3953
X3.15Y-2.45
X3.15Y-2.75
X3.15Y-6.25
X3.15Y-6.85
X3.3Y-3.0
X3.3Y-3.3
X3.3Y-3.5
X3.3Y-3.8
X3.3Y-4.0
X3.3Y-4.3
X3.3Y-4.5504
X3.3Y-4.8504
X3.3Y-5.1
X3.3Y-5.4
X3.4Y-3.0
X3.4Y-3.3
X3.4Y-3.5
X3.4Y-3.8
X3.4Y-4.0
X3.4Y-4.3
X3.4Y-4.5504
X3.4Y-4.8504
X3.4Y-5.1
X3.4Y-5.4
X3.4Y-6.4
X3.4Y-6.6953
X3.5Y-3.0
X3.5Y-3.3
X3.5Y-3.5
X3.5Y-3.8
X3.5Y-4.0
X3.5Y-4.3
X3.5Y-4.5504
X3.5Y-4.8504
X3.5Y-5.1
X3.5Y-5.4
X3.5998Y-6.3996
X3.5998Y-6.6996
X3.6Y-3.0
X3.6Y-3.3
X3.6Y-3.5
X3.6Y-3.8
X3.6Y-4.0
X3.6Y-4.3
X3.6Y-4.5504
X3.6Y-4.8504
X3.6Y-5.1
X3.6Y-5.4
X3.62Y-5.615
X3.62Y-5.915
X3.6998Y-6.3996
X3.6998Y-6.6996
X3.7Y-3.0
X3.7Y-3.3
X3.7Y-3.5
X3.7Y-3.8
X3.7Y-4.0
X3.7Y-4.3
X3.7Y-4.5504
X3.7Y-4.8504
X3.7Y-5.1
X3.7Y-5.4
X3.72Y-5.615
X3.72Y-5.915
X3.7998Y-6.3996
X3.7998Y-6.6996
X3.8Y-3.0
X3.8Y-3.3
X3.8Y-3.5
X3.8Y-3.8
X3.8Y-4.0
X3.8Y-4.3
X3.8Y-4.5504
X3.8Y-4.8504
X3.8Y-5.1
X3.8Y-5.4
X3.82Y-5.615
X3.82Y-5.915
X3.8998Y-6.3996
X3.8998Y-6.6996
X3.9Y-3.0
X3.9Y-3.3
X3.9Y-3.5
X3.9Y-3.8
X3.9Y-4.0
X3.9Y-4.3
X3.9Y-4.5504
X3.9Y-4.8504
X3.9Y-5.1
X3.9Y-5.4
X3.92Y-5.615
X3.92Y-5.915
X3.9998Y-6.3996
X3.9998Y-6.6996
X4.0Y-3.0
X4.0Y-3.3
X4.0Y-3.5
X4.0Y-3.8
X4.0Y-4.0
X4.0Y-4.3
X4.0Y-4.5504
X4.0Y-4.8504
X4.0Y-5.1
X4.0Y-5.4
X4.02Y-5.615
X4.02Y-5.915
X4.0998Y-6.3996
X4.0998Y-6.6996
X4.1Y-3.0
X4.1Y-3.3
X4.1Y-3.5
X4.1Y-3.8
X4.1Y-4.0
X4.1Y-4.3
X4.1Y-4.5504
X4.1Y-4.8504
X4.1Y-5.1
X4.1Y-5.4
X4.12Y-5.615
X4.12Y-5.915
X4.1998Y-6.3996
X4.1998Y-6.6996
X4.2Y-3.0
X4.2Y-3.3
X4.2Y-3.5
X4.2Y-3.8
X4.2Y-4.0
X4.2Y-4.3
X4.2Y-4.5504
X4.2Y-4.8504
X4.2Y-5.1
X4.2Y-5.4
T3
X1.4Y-6.45
X1.4Y-6.55
X1.4Y-6.65
T0
M30
