M48
; DRILL file {KiCad 6.0.9-8da3e8f707~117~ubuntu20.04.1} date Mon 19 Dec 2022 11:16:58 AM EST
; FORMAT={-:-/ absolute / inch / decimal}
; #@! TF.CreationDate,2022-12-19T11:16:58-05:00
; #@! TF.GenerationSoftware,Kicad,Pcbnew,6.0.9-8da3e8f707~117~ubuntu20.04.1
; #@! TF.FileFunction,Plated,1,2,PTH
FMAT,2
INCH
; #@! TA.AperFunction,Plated,PTH,ViaDrill
T1C0.0157
; #@! TA.AperFunction,Plated,PTH,ComponentDrill
T2C0.0315
; #@! TA.AperFunction,Plated,PTH,ComponentDrill
T3C0.0394
%
G90
G05
T1
X1.7286Y-7.141
X1.7583Y-6.7809
X1.7852Y-5.1434
X1.7932Y-6.8754
X2.0433Y-7.0841
X2.0978Y-6.754
X2.1512Y-7.0034
X2.1888Y-7.2407
X2.1889Y-6.7953
X2.2324Y-6.4892
X2.2452Y-6.7407
X2.2823Y-6.7603
X2.3556Y-7.1686
X2.3866Y-7.0341
X2.3873Y-7.0735
X2.3892Y-7.2434
X2.3971Y-6.8838
X2.4002Y-6.221
X2.449Y-7.2108
X2.4968Y-6.6592
X2.556Y-6.9944
X2.5802Y-7.1095
X2.6797Y-7.0939
X2.7082Y-6.8966
X2.7158Y-4.4523
X2.7317Y-7.1451
X2.7779Y-3.4535
X2.8Y-7.2032
X2.8313Y-6.5283
X2.8381Y-4.4356
X2.8626Y-2.8156
X2.8903Y-4.8984
X2.9068Y-6.5447
X2.908Y-3.3903
X2.9084Y-2.9536
X2.9379Y-3.43
X2.9623Y-6.4363
X3.0275Y-7.2158
X3.0481Y-6.4414
X3.0535Y-4.1545
X3.1021Y-7.244
X3.1057Y-6.6306
X3.1058Y-4.1428
X3.1373Y-6.5209
X3.1775Y-6.5174
X3.2116Y-6.826
X3.2286Y-6.5765
X3.2351Y-6.2976
X3.2412Y-3.3303
X3.2532Y-3.8735
X3.2762Y-6.2696
X3.3502Y-5.4518
X3.3573Y-7.2335
X3.3792Y-5.2803
X3.449Y-6.6157
X3.4715Y-6.2405
X3.5323Y-3.4083
X3.5508Y-3.1951
X3.5789Y-6.8188
X3.6463Y-3.4196
X3.6539Y-6.5511
X3.7443Y-3.8629
X3.7443Y-4.0911
X3.8Y-3.4091
X3.8443Y-4.511
X3.8732Y-6.5091
X3.9425Y-5.452
X3.945Y-4.1317
X3.9652Y-5.5548
X4.1253Y-5.2789
T2
X0.6998Y-3.2
X0.6998Y-3.4953
X0.7Y-2.6504
X0.7Y-2.9457
X0.7Y-4.35
X0.7Y-4.6453
X0.7002Y-3.75
X0.7002Y-4.0453
X0.71Y-5.5
X0.71Y-5.7953
X0.8998Y-3.1996
X0.8998Y-3.4996
X0.9Y-2.65
X0.9Y-2.95
X0.9Y-3.7496
X0.9Y-4.0496
X0.9Y-4.3496
X0.9Y-4.6496
X0.9Y-5.5
X0.9Y-5.8
X0.9998Y-3.1996
X0.9998Y-3.4996
X1.0Y-2.65
X1.0Y-2.95
X1.0Y-3.7496
X1.0Y-4.0496
X1.0Y-4.3496
X1.0Y-4.6496
X1.0Y-5.5
X1.0Y-5.8
X1.04Y-4.995
X1.04Y-5.195
X1.0998Y-3.1996
X1.0998Y-3.4996
X1.1Y-2.65
X1.1Y-2.95
X1.1Y-3.7496
X1.1Y-4.0496
X1.1Y-4.3496
X1.1Y-4.6496
X1.1Y-5.5
X1.1Y-5.8
X1.1998Y-3.1996
X1.1998Y-3.4996
X1.2Y-2.65
X1.2Y-2.95
X1.2Y-3.7496
X1.2Y-4.0496
X1.2Y-4.3496
X1.2Y-4.6496
X1.2Y-5.5
X1.2Y-5.8
X1.2998Y-3.1996
X1.2998Y-3.4996
X1.3Y-2.65
X1.3Y-2.95
X1.3Y-3.7496
X1.3Y-4.0496
X1.3Y-4.3496
X1.3Y-4.6496
X1.3Y-5.5
X1.3Y-5.8
X1.34Y-4.995
X1.34Y-5.195
X1.3998Y-3.1996
X1.3998Y-3.4996
X1.4Y-2.65
X1.4Y-2.95
X1.4Y-3.7496
X1.4Y-4.0496
X1.4Y-4.3496
X1.4Y-4.6496
X1.4Y-5.5
X1.4Y-5.8
X1.4998Y-3.1996
X1.4998Y-3.4996
X1.5Y-2.65
X1.5Y-2.95
X1.5Y-3.7496
X1.5Y-4.0496
X1.5Y-4.3496
X1.5Y-4.6496
X1.5Y-5.5
X1.5Y-5.8
X1.66Y-6.3998
X1.66Y-6.6951
X1.85Y-6.25
X1.85Y-6.85
X1.895Y-3.495
X1.895Y-3.7903
X1.8998Y-3.9996
X1.8998Y-4.2949
X1.9Y-4.55
X1.9Y-4.8453
X1.9Y-5.1
X1.9Y-5.3953
X1.95Y-6.25
X1.95Y-6.85
X2.05Y-6.25
X2.05Y-6.85
X2.095Y-3.4954
X2.095Y-3.7954
X2.0998Y-3.9996
X2.0998Y-4.2996
X2.1Y-4.55
X2.1Y-4.85
X2.1Y-5.1
X2.1Y-5.4
X2.15Y-6.25
X2.15Y-6.85
X2.195Y-3.4954
X2.195Y-3.7954
X2.1998Y-3.9996
X2.1998Y-4.2996
X2.2Y-4.55
X2.2Y-4.85
X2.2Y-5.1
X2.2Y-5.4
X2.25Y-6.25
X2.25Y-6.85
X2.295Y-3.4954
X2.295Y-3.7954
X2.2998Y-3.9996
X2.2998Y-4.2996
X2.3Y-4.55
X2.3Y-4.85
X2.3Y-5.1
X2.3Y-5.4
X2.35Y-6.25
X2.35Y-6.85
X2.395Y-3.4954
X2.395Y-3.7954
X2.3998Y-3.9996
X2.3998Y-4.2996
X2.4Y-4.55
X2.4Y-4.85
X2.4Y-5.1
X2.4Y-5.4
X2.4496Y-2.0406
X2.4496Y-2.1406
X2.4496Y-2.2406
X2.4496Y-2.3406
X2.4496Y-2.4406
X2.4496Y-2.5406
X2.4496Y-2.6406
X2.4496Y-2.7406
X2.4496Y-2.8406
X2.45Y-6.25
X2.45Y-6.85
X2.495Y-3.4954
X2.495Y-3.7954
X2.4998Y-3.9996
X2.4998Y-4.2996
X2.5Y-4.55
X2.5Y-4.85
X2.5Y-5.1
X2.5Y-5.4
X2.55Y-6.25
X2.55Y-6.85
X2.595Y-3.4954
X2.595Y-3.7954
X2.5998Y-3.9996
X2.5998Y-4.2996
X2.6Y-4.55
X2.6Y-4.85
X2.6Y-5.1
X2.6Y-5.4
X2.65Y-6.25
X2.65Y-6.85
X2.695Y-3.4954
X2.695Y-3.7954
X2.6998Y-3.9996
X2.6998Y-4.2996
X2.7Y-4.55
X2.7Y-4.85
X2.7Y-5.1
X2.7Y-5.4
X2.7496Y-2.0406
X2.7496Y-2.1406
X2.7496Y-2.2406
X2.7496Y-2.3406
X2.7496Y-2.4406
X2.7496Y-2.5406
X2.7496Y-2.6406
X2.7496Y-2.7406
X2.7496Y-2.8406
X2.75Y-6.25
X2.75Y-6.85
X2.85Y-6.25
X2.85Y-6.85
X2.95Y-6.25
X2.95Y-6.85
X2.9921Y-2.35
X2.9921Y-2.6453
X3.05Y-6.25
X3.05Y-6.85
X3.1Y-3.0
X3.1Y-3.2953
X3.1Y-3.5
X3.1Y-3.7953
X3.1Y-4.0
X3.1Y-4.2953
X3.1Y-4.5474
X3.1Y-4.8426
X3.1Y-5.1
X3.1Y-5.3953
X3.148Y-2.35
X3.148Y-2.65
X3.15Y-6.25
X3.15Y-6.85
X3.3Y-3.0
X3.3Y-3.3
X3.3Y-3.5
X3.3Y-3.8
X3.3Y-4.0
X3.3Y-4.3
X3.3Y-4.545
X3.3Y-4.845
X3.3Y-5.1
X3.3Y-5.4
X3.4Y-3.0
X3.4Y-3.3
X3.4Y-3.5
X3.4Y-3.8
X3.4Y-4.0
X3.4Y-4.3
X3.4Y-4.545
X3.4Y-4.845
X3.4Y-5.1
X3.4Y-5.4
X3.4Y-6.4
X3.4Y-6.6953
X3.5Y-3.0
X3.5Y-3.3
X3.5Y-3.5
X3.5Y-3.8
X3.5Y-4.0
X3.5Y-4.3
X3.5Y-4.545
X3.5Y-4.845
X3.5Y-5.1
X3.5Y-5.4
X3.5998Y-6.3996
X3.5998Y-6.6996
X3.6Y-3.0
X3.6Y-3.3
X3.6Y-3.5
X3.6Y-3.8
X3.6Y-4.0
X3.6Y-4.3
X3.6Y-4.545
X3.6Y-4.845
X3.6Y-5.1
X3.6Y-5.4
X3.62Y-5.615
X3.62Y-5.915
X3.6998Y-6.3996
X3.6998Y-6.6996
X3.7Y-3.0
X3.7Y-3.3
X3.7Y-3.5
X3.7Y-3.8
X3.7Y-4.0
X3.7Y-4.3
X3.7Y-4.545
X3.7Y-4.845
X3.7Y-5.1
X3.7Y-5.4
X3.72Y-5.615
X3.72Y-5.915
X3.7998Y-6.3996
X3.7998Y-6.6996
X3.8Y-3.0
X3.8Y-3.3
X3.8Y-3.5
X3.8Y-3.8
X3.8Y-4.0
X3.8Y-4.3
X3.8Y-4.545
X3.8Y-4.845
X3.8Y-5.1
X3.8Y-5.4
X3.82Y-5.615
X3.82Y-5.915
X3.8998Y-6.3996
X3.8998Y-6.6996
X3.9Y-3.0
X3.9Y-3.3
X3.9Y-3.5
X3.9Y-3.8
X3.9Y-4.0
X3.9Y-4.3
X3.9Y-4.545
X3.9Y-4.845
X3.9Y-5.1
X3.9Y-5.4
X3.92Y-5.615
X3.92Y-5.915
X3.9998Y-6.3996
X3.9998Y-6.6996
X4.0Y-3.0
X4.0Y-3.3
X4.0Y-3.5
X4.0Y-3.8
X4.0Y-4.0
X4.0Y-4.3
X4.0Y-4.545
X4.0Y-4.845
X4.0Y-5.1
X4.0Y-5.4
X4.02Y-5.615
X4.02Y-5.915
X4.0998Y-6.3996
X4.0998Y-6.6996
X4.1Y-3.0
X4.1Y-3.3
X4.1Y-3.5
X4.1Y-3.8
X4.1Y-4.0
X4.1Y-4.3
X4.1Y-4.545
X4.1Y-4.845
X4.1Y-5.1
X4.1Y-5.4
X4.12Y-5.615
X4.12Y-5.915
X4.1998Y-6.3996
X4.1998Y-6.6996
X4.2Y-3.0
X4.2Y-3.3
X4.2Y-3.5
X4.2Y-3.8
X4.2Y-4.0
X4.2Y-4.3
X4.2Y-4.545
X4.2Y-4.845
X4.2Y-5.1
X4.2Y-5.4
T3
X1.4Y-6.45
X1.4Y-6.55
X1.4Y-6.65
T0
M30
