M48
; DRILL file {KiCad 6.0.7-f9a2dced07~116~ubuntu20.04.1} date Sat 03 Dec 2022 06:18:14 PM EST
; FORMAT={-:-/ absolute / inch / decimal}
; #@! TF.CreationDate,2022-12-03T18:18:14-05:00
; #@! TF.GenerationSoftware,Kicad,Pcbnew,6.0.7-f9a2dced07~116~ubuntu20.04.1
; #@! TF.FileFunction,Plated,1,2,PTH
FMAT,2
INCH
; #@! TA.AperFunction,Plated,PTH,ViaDrill
T1C0.0157
; #@! TA.AperFunction,Plated,PTH,ComponentDrill
T2C0.0315
; #@! TA.AperFunction,Plated,PTH,ComponentDrill
T3C0.0394
%
G90
G05
T1
X1.8724Y-3.4383
X2.1Y-5.937
X2.1781Y-6.7526
X2.2267Y-5.8106
X2.3161Y-7.2133
X2.3465Y-5.0145
X2.4178Y-6.7348
X2.4493Y-7.1651
X2.4745Y-6.9249
X2.4945Y-6.3726
X2.4952Y-6.982
X2.4988Y-7.0481
X2.5148Y-6.3372
X2.5223Y-6.4005
X2.5345Y-6.9835
X2.5574Y-6.3548
X2.5955Y-6.9242
X2.6186Y-6.5925
X2.6638Y-6.641
X2.7003Y-6.7879
X2.7663Y-6.7702
X2.8Y-7.231
X2.8799Y-6.0427
X2.9589Y-6.7637
X2.9968Y-6.5792
X3.0074Y-6.4841
X3.1158Y-4.0721
X3.1997Y-4.7523
X3.2473Y-5.9419
X3.3284Y-4.1428
X3.5063Y-5.7328
X3.55Y-3.455
X3.737Y-3.6781
X3.8763Y-3.4194
X3.9949Y-4.6515
T2
X0.6998Y-3.2
X0.6998Y-3.4953
X0.7Y-2.6504
X0.7Y-2.9457
X0.7Y-4.35
X0.7Y-4.6453
X0.7002Y-3.75
X0.7002Y-4.0453
X0.71Y-5.5
X0.71Y-5.7953
X0.8998Y-3.1996
X0.8998Y-3.4996
X0.9Y-2.65
X0.9Y-2.95
X0.9Y-3.7496
X0.9Y-4.0496
X0.9Y-4.3496
X0.9Y-4.6496
X0.9Y-5.5
X0.9Y-5.8
X0.9998Y-3.1996
X0.9998Y-3.4996
X1.0Y-2.65
X1.0Y-2.95
X1.0Y-3.7496
X1.0Y-4.0496
X1.0Y-4.3496
X1.0Y-4.6496
X1.0Y-5.5
X1.0Y-5.8
X1.05Y-4.925
X1.05Y-5.125
X1.05Y-5.325
X1.0998Y-3.1996
X1.0998Y-3.4996
X1.1Y-2.65
X1.1Y-2.95
X1.1Y-3.7496
X1.1Y-4.0496
X1.1Y-4.3496
X1.1Y-4.6496
X1.1Y-5.5
X1.1Y-5.8
X1.1998Y-3.1996
X1.1998Y-3.4996
X1.2Y-2.65
X1.2Y-2.95
X1.2Y-3.7496
X1.2Y-4.0496
X1.2Y-4.3496
X1.2Y-4.6496
X1.2Y-5.5
X1.2Y-5.8
X1.2998Y-3.1996
X1.2998Y-3.4996
X1.3Y-2.65
X1.3Y-2.95
X1.3Y-3.7496
X1.3Y-4.0496
X1.3Y-4.3496
X1.3Y-4.6496
X1.3Y-5.5
X1.3Y-5.8
X1.35Y-4.925
X1.35Y-5.125
X1.35Y-5.325
X1.3998Y-3.1996
X1.3998Y-3.4996
X1.4Y-2.65
X1.4Y-2.95
X1.4Y-3.7496
X1.4Y-4.0496
X1.4Y-4.3496
X1.4Y-4.6496
X1.4Y-5.5
X1.4Y-5.8
X1.4998Y-3.1996
X1.4998Y-3.4996
X1.5Y-2.65
X1.5Y-2.95
X1.5Y-3.7496
X1.5Y-4.0496
X1.5Y-4.3496
X1.5Y-4.6496
X1.5Y-5.5
X1.5Y-5.8
X1.66Y-6.3998
X1.66Y-6.6951
X1.85Y-6.25
X1.85Y-6.85
X1.895Y-3.495
X1.895Y-3.7903
X1.8998Y-3.9996
X1.8998Y-4.2949
X1.9Y-4.55
X1.9Y-4.8453
X1.9Y-5.1
X1.9Y-5.3953
X1.95Y-6.25
X1.95Y-6.85
X2.05Y-6.25
X2.05Y-6.85
X2.095Y-3.4954
X2.095Y-3.7954
X2.0998Y-3.9996
X2.0998Y-4.2996
X2.1Y-4.55
X2.1Y-4.85
X2.1Y-5.1
X2.1Y-5.4
X2.15Y-6.25
X2.15Y-6.85
X2.195Y-3.4954
X2.195Y-3.7954
X2.1998Y-3.9996
X2.1998Y-4.2996
X2.2Y-4.55
X2.2Y-4.85
X2.2Y-5.1
X2.2Y-5.4
X2.25Y-6.25
X2.25Y-6.85
X2.295Y-3.4954
X2.295Y-3.7954
X2.2998Y-3.9996
X2.2998Y-4.2996
X2.3Y-4.55
X2.3Y-4.85
X2.3Y-5.1
X2.3Y-5.4
X2.35Y-6.25
X2.35Y-6.85
X2.395Y-3.4954
X2.395Y-3.7954
X2.3998Y-3.9996
X2.3998Y-4.2996
X2.4Y-4.55
X2.4Y-4.85
X2.4Y-5.1
X2.4Y-5.4
X2.4496Y-2.0406
X2.4496Y-2.1406
X2.4496Y-2.2406
X2.4496Y-2.3406
X2.4496Y-2.4406
X2.4496Y-2.5406
X2.4496Y-2.6406
X2.4496Y-2.7406
X2.4496Y-2.8406
X2.45Y-6.25
X2.45Y-6.85
X2.495Y-3.4954
X2.495Y-3.7954
X2.4998Y-3.9996
X2.4998Y-4.2996
X2.5Y-4.55
X2.5Y-4.85
X2.5Y-5.1
X2.5Y-5.4
X2.55Y-6.25
X2.55Y-6.85
X2.595Y-3.4954
X2.595Y-3.7954
X2.5998Y-3.9996
X2.5998Y-4.2996
X2.6Y-4.55
X2.6Y-4.85
X2.6Y-5.1
X2.6Y-5.4
X2.65Y-6.25
X2.65Y-6.85
X2.695Y-3.4954
X2.695Y-3.7954
X2.6998Y-3.9996
X2.6998Y-4.2996
X2.7Y-4.55
X2.7Y-4.85
X2.7Y-5.1
X2.7Y-5.4
X2.7496Y-2.0406
X2.7496Y-2.1406
X2.7496Y-2.2406
X2.7496Y-2.3406
X2.7496Y-2.4406
X2.7496Y-2.5406
X2.7496Y-2.6406
X2.7496Y-2.7406
X2.7496Y-2.8406
X2.75Y-6.25
X2.75Y-6.85
X2.85Y-6.25
X2.85Y-6.85
X2.95Y-6.25
X2.95Y-6.85
X2.9921Y-2.35
X2.9921Y-2.6453
X3.05Y-6.25
X3.05Y-6.85
X3.1Y-3.0
X3.1Y-3.2953
X3.1Y-3.5
X3.1Y-3.7953
X3.1Y-4.0
X3.1Y-4.2953
X3.1Y-4.5474
X3.1Y-4.8426
X3.1Y-5.1
X3.1Y-5.3953
X3.148Y-2.35
X3.148Y-2.65
X3.15Y-6.25
X3.15Y-6.85
X3.3Y-3.0
X3.3Y-3.3
X3.3Y-3.5
X3.3Y-3.8
X3.3Y-4.0
X3.3Y-4.3
X3.3Y-4.545
X3.3Y-4.845
X3.3Y-5.1
X3.3Y-5.4
X3.4Y-3.0
X3.4Y-3.3
X3.4Y-3.5
X3.4Y-3.8
X3.4Y-4.0
X3.4Y-4.3
X3.4Y-4.545
X3.4Y-4.845
X3.4Y-5.1
X3.4Y-5.4
X3.4Y-6.4
X3.4Y-6.6953
X3.5Y-3.0
X3.5Y-3.3
X3.5Y-3.5
X3.5Y-3.8
X3.5Y-4.0
X3.5Y-4.3
X3.5Y-4.545
X3.5Y-4.845
X3.5Y-5.1
X3.5Y-5.4
X3.5998Y-6.3996
X3.5998Y-6.6996
X3.6Y-3.0
X3.6Y-3.3
X3.6Y-3.5
X3.6Y-3.8
X3.6Y-4.0
X3.6Y-4.3
X3.6Y-4.545
X3.6Y-4.845
X3.6Y-5.1
X3.6Y-5.4
X3.62Y-5.615
X3.62Y-5.915
X3.6998Y-6.3996
X3.6998Y-6.6996
X3.7Y-3.0
X3.7Y-3.3
X3.7Y-3.5
X3.7Y-3.8
X3.7Y-4.0
X3.7Y-4.3
X3.7Y-4.545
X3.7Y-4.845
X3.7Y-5.1
X3.7Y-5.4
X3.72Y-5.615
X3.72Y-5.915
X3.7998Y-6.3996
X3.7998Y-6.6996
X3.8Y-3.0
X3.8Y-3.3
X3.8Y-3.5
X3.8Y-3.8
X3.8Y-4.0
X3.8Y-4.3
X3.8Y-4.545
X3.8Y-4.845
X3.8Y-5.1
X3.8Y-5.4
X3.82Y-5.615
X3.82Y-5.915
X3.8998Y-6.3996
X3.8998Y-6.6996
X3.9Y-3.0
X3.9Y-3.3
X3.9Y-3.5
X3.9Y-3.8
X3.9Y-4.0
X3.9Y-4.3
X3.9Y-4.545
X3.9Y-4.845
X3.9Y-5.1
X3.9Y-5.4
X3.92Y-5.615
X3.92Y-5.915
X3.9998Y-6.3996
X3.9998Y-6.6996
X4.0Y-3.0
X4.0Y-3.3
X4.0Y-3.5
X4.0Y-3.8
X4.0Y-4.0
X4.0Y-4.3
X4.0Y-4.545
X4.0Y-4.845
X4.0Y-5.1
X4.0Y-5.4
X4.02Y-5.615
X4.02Y-5.915
X4.0998Y-6.3996
X4.0998Y-6.6996
X4.1Y-3.0
X4.1Y-3.3
X4.1Y-3.5
X4.1Y-3.8
X4.1Y-4.0
X4.1Y-4.3
X4.1Y-4.545
X4.1Y-4.845
X4.1Y-5.1
X4.1Y-5.4
X4.12Y-5.615
X4.12Y-5.915
X4.1998Y-6.3996
X4.1998Y-6.6996
X4.2Y-3.0
X4.2Y-3.3
X4.2Y-3.5
X4.2Y-3.8
X4.2Y-4.0
X4.2Y-4.3
X4.2Y-4.545
X4.2Y-4.845
X4.2Y-5.1
X4.2Y-5.4
T3
X1.4Y-6.45
X1.4Y-6.55
X1.4Y-6.65
T0
M30
