M48
; DRILL file {KiCad 6.0.7-f9a2dced07~116~ubuntu20.04.1} date Wed 16 Nov 2022 09:52:59 AM EST
; FORMAT={-:-/ absolute / inch / decimal}
; #@! TF.CreationDate,2022-11-16T09:52:59-05:00
; #@! TF.GenerationSoftware,Kicad,Pcbnew,6.0.7-f9a2dced07~116~ubuntu20.04.1
; #@! TF.FileFunction,Plated,1,2,PTH
FMAT,2
INCH
; #@! TA.AperFunction,Plated,PTH,ViaDrill
T1C0.0157
; #@! TA.AperFunction,Plated,PTH,ComponentDrill
T2C0.0315
; #@! TA.AperFunction,Plated,PTH,ComponentDrill
T3C0.0394
%
G90
G05
T1
X1.925Y-7.0575
X2.0081Y-5.815
X2.0537Y-5.2924
X2.1292Y-6.9912
X2.1611Y-6.9397
X2.2421Y-7.1445
X2.2594Y-6.6919
X2.3528Y-3.6117
X2.4181Y-6.669
X2.5263Y-7.118
X2.5679Y-3.1881
X2.6007Y-6.7436
X2.6061Y-6.8007
X2.6862Y-6.7767
X2.7443Y-4.4362
X2.7467Y-3.9568
X2.794Y-4.089
X2.8259Y-6.1553
X2.8329Y-6.6577
X2.8571Y-6.4015
X2.8658Y-6.6868
X2.9352Y-6.6128
X2.9678Y-6.5883
X2.9945Y-7.2324
X3.0Y-6.0159
X3.0829Y-6.7488
X3.0871Y-6.3667
X3.1Y-7.2443
X3.1206Y-6.3366
X3.2231Y-4.883
X3.3724Y-4.6443
X3.4471Y-4.9611
X3.478Y-3.3989
X3.5159Y-5.7223
X3.5521Y-6.7994
X3.594Y-6.7573
T2
X0.6998Y-3.2
X0.6998Y-3.4953
X0.7Y-2.6504
X0.7Y-2.9457
X0.7Y-4.35
X0.7Y-4.6453
X0.7002Y-3.75
X0.7002Y-4.0453
X0.71Y-5.5
X0.71Y-5.7953
X0.8998Y-2.65
X0.8998Y-2.95
X0.8998Y-3.1996
X0.8998Y-3.4996
X0.9Y-3.7496
X0.9Y-4.0496
X0.9Y-4.3496
X0.9Y-4.6496
X0.9Y-5.5
X0.9Y-5.8
X0.9998Y-2.65
X0.9998Y-2.95
X0.9998Y-3.1996
X0.9998Y-3.4996
X1.0Y-3.7496
X1.0Y-4.0496
X1.0Y-4.3496
X1.0Y-4.6496
X1.0Y-5.5
X1.0Y-5.8
X1.05Y-4.925
X1.05Y-5.125
X1.05Y-5.325
X1.0998Y-2.65
X1.0998Y-2.95
X1.0998Y-3.1996
X1.0998Y-3.4996
X1.1Y-3.7496
X1.1Y-4.0496
X1.1Y-4.3496
X1.1Y-4.6496
X1.1Y-5.5
X1.1Y-5.8
X1.1998Y-2.65
X1.1998Y-2.95
X1.1998Y-3.1996
X1.1998Y-3.4996
X1.2Y-3.7496
X1.2Y-4.0496
X1.2Y-4.3496
X1.2Y-4.6496
X1.2Y-5.5
X1.2Y-5.8
X1.2998Y-2.65
X1.2998Y-2.95
X1.2998Y-3.1996
X1.2998Y-3.4996
X1.3Y-3.7496
X1.3Y-4.0496
X1.3Y-4.3496
X1.3Y-4.6496
X1.3Y-5.5
X1.3Y-5.8
X1.35Y-4.925
X1.35Y-5.125
X1.35Y-5.325
X1.3998Y-2.65
X1.3998Y-2.95
X1.3998Y-3.1996
X1.3998Y-3.4996
X1.4Y-3.7496
X1.4Y-4.0496
X1.4Y-4.3496
X1.4Y-4.6496
X1.4Y-5.5
X1.4Y-5.8
X1.4998Y-2.65
X1.4998Y-2.95
X1.4998Y-3.1996
X1.4998Y-3.4996
X1.5Y-3.7496
X1.5Y-4.0496
X1.5Y-4.3496
X1.5Y-4.6496
X1.5Y-5.5
X1.5Y-5.8
X1.66Y-6.3998
X1.66Y-6.6951
X1.725Y-3.5
X1.725Y-3.7953
X1.85Y-6.25
X1.85Y-6.85
X1.8998Y-3.9996
X1.8998Y-4.2949
X1.9Y-4.55
X1.9Y-4.8453
X1.9Y-5.1
X1.9Y-5.3953
X1.9252Y-3.5
X1.9252Y-3.8
X1.95Y-6.25
X1.95Y-6.85
X2.0252Y-3.5
X2.0252Y-3.8
X2.05Y-6.25
X2.05Y-6.85
X2.0998Y-3.9996
X2.0998Y-4.2996
X2.1Y-4.55
X2.1Y-4.85
X2.1Y-5.1
X2.1Y-5.4
X2.1252Y-3.5
X2.1252Y-3.8
X2.15Y-6.25
X2.15Y-6.85
X2.1998Y-3.9996
X2.1998Y-4.2996
X2.2Y-4.55
X2.2Y-4.85
X2.2Y-5.1
X2.2Y-5.4
X2.2252Y-3.5
X2.2252Y-3.8
X2.25Y-6.25
X2.25Y-6.85
X2.2998Y-3.9996
X2.2998Y-4.2996
X2.3Y-4.55
X2.3Y-4.85
X2.3Y-5.1
X2.3Y-5.4
X2.3252Y-3.5
X2.3252Y-3.8
X2.35Y-6.25
X2.35Y-6.85
X2.3998Y-3.9996
X2.3998Y-4.2996
X2.4Y-4.55
X2.4Y-4.85
X2.4Y-5.1
X2.4Y-5.4
X2.4252Y-3.5
X2.4252Y-3.8
X2.4496Y-2.2496
X2.4496Y-2.3496
X2.4496Y-2.4496
X2.4496Y-2.5496
X2.4496Y-2.6496
X2.4496Y-2.7496
X2.4496Y-2.8496
X2.4496Y-2.9496
X2.4496Y-3.0496
X2.45Y-6.25
X2.45Y-6.85
X2.4998Y-3.9996
X2.4998Y-4.2996
X2.5Y-4.55
X2.5Y-4.85
X2.5Y-5.1
X2.5Y-5.4
X2.5252Y-3.5
X2.5252Y-3.8
X2.55Y-6.25
X2.55Y-6.85
X2.5998Y-3.9996
X2.5998Y-4.2996
X2.6Y-4.55
X2.6Y-4.85
X2.6Y-5.1
X2.6Y-5.4
X2.6252Y-3.5
X2.6252Y-3.8
X2.65Y-6.25
X2.65Y-6.85
X2.6998Y-3.9996
X2.6998Y-4.2996
X2.7Y-4.55
X2.7Y-4.85
X2.7Y-5.1
X2.7Y-5.4
X2.7252Y-3.5
X2.7252Y-3.8
X2.7496Y-2.2496
X2.7496Y-2.3496
X2.7496Y-2.4496
X2.7496Y-2.5496
X2.7496Y-2.6496
X2.7496Y-2.7496
X2.7496Y-2.8496
X2.7496Y-2.9496
X2.7496Y-3.0496
X2.75Y-6.25
X2.75Y-6.85
X2.8252Y-3.5
X2.8252Y-3.8
X2.85Y-6.25
X2.85Y-6.85
X2.95Y-6.25
X2.95Y-6.85
X2.975Y-2.4524
X2.975Y-2.7476
X3.05Y-6.25
X3.05Y-6.85
X3.1Y-3.0
X3.1Y-3.2953
X3.1Y-3.5
X3.1Y-3.7953
X3.1Y-4.0
X3.1Y-4.2953
X3.1Y-4.55
X3.1Y-4.8453
X3.1Y-5.1
X3.1Y-5.3953
X3.15Y-2.45
X3.15Y-2.75
X3.15Y-6.25
X3.15Y-6.85
X3.3Y-3.0
X3.3Y-3.3
X3.3Y-3.5
X3.3Y-3.8
X3.3Y-4.0
X3.3Y-4.3
X3.3Y-4.5504
X3.3Y-4.8504
X3.3Y-5.1
X3.3Y-5.4
X3.4Y-3.0
X3.4Y-3.3
X3.4Y-3.5
X3.4Y-3.8
X3.4Y-4.0
X3.4Y-4.3
X3.4Y-4.5504
X3.4Y-4.8504
X3.4Y-5.1
X3.4Y-5.4
X3.4Y-6.4
X3.4Y-6.6953
X3.5Y-3.0
X3.5Y-3.3
X3.5Y-3.5
X3.5Y-3.8
X3.5Y-4.0
X3.5Y-4.3
X3.5Y-4.5504
X3.5Y-4.8504
X3.5Y-5.1
X3.5Y-5.4
X3.5998Y-6.3996
X3.5998Y-6.6996
X3.6Y-3.0
X3.6Y-3.3
X3.6Y-3.5
X3.6Y-3.8
X3.6Y-4.0
X3.6Y-4.3
X3.6Y-4.5504
X3.6Y-4.8504
X3.6Y-5.1
X3.6Y-5.4
X3.62Y-5.615
X3.62Y-5.915
X3.6998Y-6.3996
X3.6998Y-6.6996
X3.7Y-3.0
X3.7Y-3.3
X3.7Y-3.5
X3.7Y-3.8
X3.7Y-4.0
X3.7Y-4.3
X3.7Y-4.5504
X3.7Y-4.8504
X3.7Y-5.1
X3.7Y-5.4
X3.72Y-5.615
X3.72Y-5.915
X3.7998Y-6.3996
X3.7998Y-6.6996
X3.8Y-3.0
X3.8Y-3.3
X3.8Y-3.5
X3.8Y-3.8
X3.8Y-4.0
X3.8Y-4.3
X3.8Y-4.5504
X3.8Y-4.8504
X3.8Y-5.1
X3.8Y-5.4
X3.82Y-5.615
X3.82Y-5.915
X3.8998Y-6.3996
X3.8998Y-6.6996
X3.9Y-3.0
X3.9Y-3.3
X3.9Y-3.5
X3.9Y-3.8
X3.9Y-4.0
X3.9Y-4.3
X3.9Y-4.5504
X3.9Y-4.8504
X3.9Y-5.1
X3.9Y-5.4
X3.92Y-5.615
X3.92Y-5.915
X3.9998Y-6.3996
X3.9998Y-6.6996
X4.0Y-3.0
X4.0Y-3.3
X4.0Y-3.5
X4.0Y-3.8
X4.0Y-4.0
X4.0Y-4.3
X4.0Y-5.1
X4.0Y-5.4
X4.02Y-5.615
X4.02Y-5.915
X4.0998Y-6.3996
X4.0998Y-6.6996
X4.1Y-3.0
X4.1Y-3.3
X4.1Y-3.5
X4.1Y-3.8
X4.1Y-4.0
X4.1Y-4.3
X4.1Y-5.1
X4.1Y-5.4
X4.12Y-5.615
X4.12Y-5.915
X4.1998Y-6.3996
X4.1998Y-6.6996
X4.2Y-3.0
X4.2Y-3.3
X4.2Y-3.5
X4.2Y-3.8
X4.2Y-4.0
X4.2Y-4.3
X4.2Y-5.1
X4.2Y-5.4
T3
X1.4Y-6.45
X1.4Y-6.55
X1.4Y-6.65
T0
M30
