M48
; DRILL file {KiCad 6.0.7-f9a2dced07~116~ubuntu20.04.1} date Wed 23 Nov 2022 10:30:58 AM EST
; FORMAT={-:-/ absolute / inch / decimal}
; #@! TF.CreationDate,2022-11-23T10:30:58-05:00
; #@! TF.GenerationSoftware,Kicad,Pcbnew,6.0.7-f9a2dced07~116~ubuntu20.04.1
; #@! TF.FileFunction,Plated,1,2,PTH
FMAT,2
INCH
; #@! TA.AperFunction,Plated,PTH,ViaDrill
T1C0.0157
; #@! TA.AperFunction,Plated,PTH,ComponentDrill
T2C0.0315
; #@! TA.AperFunction,Plated,PTH,ComponentDrill
T3C0.0394
%
G90
G05
T1
X1.3814Y-6.8395
X2.0022Y-6.7569
X2.0331Y-7.2375
X2.1645Y-7.0045
X2.2059Y-7.229
X2.2517Y-5.4548
X2.2891Y-7.2331
X2.336Y-6.9605
X2.3968Y-7.104
X2.4232Y-7.2366
X2.4258Y-7.038
X2.4664Y-7.0215
X2.5959Y-4.7589
X2.6466Y-6.7402
X2.6723Y-4.743
X2.7569Y-4.4584
X2.7903Y-6.3146
X2.8085Y-6.6571
X2.9Y-6.1436
X2.9171Y-6.5625
X2.9683Y-7.0369
X2.9905Y-7.1356
X2.9936Y-7.2441
X3.0057Y-5.9905
X3.0211Y-6.9188
X3.0221Y-4.822
X3.0556Y-4.1347
X3.1132Y-7.2411
X3.1973Y-4.4777
X3.5103Y-5.8682
T2
X0.6998Y-3.2
X0.6998Y-3.4953
X0.7Y-2.6504
X0.7Y-2.9457
X0.7Y-4.35
X0.7Y-4.6453
X0.7002Y-3.75
X0.7002Y-4.0453
X0.71Y-5.5
X0.71Y-5.7953
X0.8998Y-2.65
X0.8998Y-2.95
X0.8998Y-3.1996
X0.8998Y-3.4996
X0.9Y-3.7496
X0.9Y-4.0496
X0.9Y-4.3496
X0.9Y-4.6496
X0.9Y-5.5
X0.9Y-5.8
X0.9998Y-2.65
X0.9998Y-2.95
X0.9998Y-3.1996
X0.9998Y-3.4996
X1.0Y-3.7496
X1.0Y-4.0496
X1.0Y-4.3496
X1.0Y-4.6496
X1.0Y-5.5
X1.0Y-5.8
X1.05Y-4.925
X1.05Y-5.125
X1.05Y-5.325
X1.0998Y-2.65
X1.0998Y-2.95
X1.0998Y-3.1996
X1.0998Y-3.4996
X1.1Y-3.7496
X1.1Y-4.0496
X1.1Y-4.3496
X1.1Y-4.6496
X1.1Y-5.5
X1.1Y-5.8
X1.1998Y-2.65
X1.1998Y-2.95
X1.1998Y-3.1996
X1.1998Y-3.4996
X1.2Y-3.7496
X1.2Y-4.0496
X1.2Y-4.3496
X1.2Y-4.6496
X1.2Y-5.5
X1.2Y-5.8
X1.2998Y-2.65
X1.2998Y-2.95
X1.2998Y-3.1996
X1.2998Y-3.4996
X1.3Y-3.7496
X1.3Y-4.0496
X1.3Y-4.3496
X1.3Y-4.6496
X1.3Y-5.5
X1.3Y-5.8
X1.35Y-4.925
X1.35Y-5.125
X1.35Y-5.325
X1.3998Y-2.65
X1.3998Y-2.95
X1.3998Y-3.1996
X1.3998Y-3.4996
X1.4Y-3.7496
X1.4Y-4.0496
X1.4Y-4.3496
X1.4Y-4.6496
X1.4Y-5.5
X1.4Y-5.8
X1.4998Y-2.65
X1.4998Y-2.95
X1.4998Y-3.1996
X1.4998Y-3.4996
X1.5Y-3.7496
X1.5Y-4.0496
X1.5Y-4.3496
X1.5Y-4.6496
X1.5Y-5.5
X1.5Y-5.8
X1.66Y-6.3998
X1.66Y-6.6951
X1.725Y-3.5
X1.725Y-3.7953
X1.85Y-6.25
X1.85Y-6.85
X1.8998Y-3.9996
X1.8998Y-4.2949
X1.9Y-4.55
X1.9Y-4.8453
X1.9Y-5.1
X1.9Y-5.3953
X1.9252Y-3.5
X1.9252Y-3.8
X1.95Y-6.25
X1.95Y-6.85
X2.0252Y-3.5
X2.0252Y-3.8
X2.05Y-6.25
X2.05Y-6.85
X2.0998Y-3.9996
X2.0998Y-4.2996
X2.1Y-4.55
X2.1Y-4.85
X2.1Y-5.1
X2.1Y-5.4
X2.1252Y-3.5
X2.1252Y-3.8
X2.15Y-6.25
X2.15Y-6.85
X2.1998Y-3.9996
X2.1998Y-4.2996
X2.2Y-4.55
X2.2Y-4.85
X2.2Y-5.1
X2.2Y-5.4
X2.2252Y-3.5
X2.2252Y-3.8
X2.25Y-6.25
X2.25Y-6.85
X2.2998Y-3.9996
X2.2998Y-4.2996
X2.3Y-4.55
X2.3Y-4.85
X2.3Y-5.1
X2.3Y-5.4
X2.3252Y-3.5
X2.3252Y-3.8
X2.35Y-6.25
X2.35Y-6.85
X2.3998Y-3.9996
X2.3998Y-4.2996
X2.4Y-4.55
X2.4Y-4.85
X2.4Y-5.1
X2.4Y-5.4
X2.4252Y-3.5
X2.4252Y-3.8
X2.4496Y-2.2496
X2.4496Y-2.3496
X2.4496Y-2.4496
X2.4496Y-2.5496
X2.4496Y-2.6496
X2.4496Y-2.7496
X2.4496Y-2.8496
X2.4496Y-2.9496
X2.4496Y-3.0496
X2.45Y-6.25
X2.45Y-6.85
X2.4998Y-3.9996
X2.4998Y-4.2996
X2.5Y-4.55
X2.5Y-4.85
X2.5Y-5.1
X2.5Y-5.4
X2.5252Y-3.5
X2.5252Y-3.8
X2.55Y-6.25
X2.55Y-6.85
X2.5998Y-3.9996
X2.5998Y-4.2996
X2.6Y-4.55
X2.6Y-4.85
X2.6Y-5.1
X2.6Y-5.4
X2.6252Y-3.5
X2.6252Y-3.8
X2.65Y-6.25
X2.65Y-6.85
X2.6998Y-3.9996
X2.6998Y-4.2996
X2.7Y-4.55
X2.7Y-4.85
X2.7Y-5.1
X2.7Y-5.4
X2.7252Y-3.5
X2.7252Y-3.8
X2.7496Y-2.2496
X2.7496Y-2.3496
X2.7496Y-2.4496
X2.7496Y-2.5496
X2.7496Y-2.6496
X2.7496Y-2.7496
X2.7496Y-2.8496
X2.7496Y-2.9496
X2.7496Y-3.0496
X2.75Y-6.25
X2.75Y-6.85
X2.8252Y-3.5
X2.8252Y-3.8
X2.85Y-6.25
X2.85Y-6.85
X2.95Y-6.25
X2.95Y-6.85
X2.975Y-2.4524
X2.975Y-2.7476
X3.05Y-6.25
X3.05Y-6.85
X3.1Y-3.0
X3.1Y-3.2953
X3.1Y-3.5
X3.1Y-3.7953
X3.1Y-4.0
X3.1Y-4.2953
X3.1Y-4.55
X3.1Y-4.8453
X3.1Y-5.1
X3.1Y-5.3953
X3.15Y-2.45
X3.15Y-2.75
X3.15Y-6.25
X3.15Y-6.85
X3.3Y-3.0
X3.3Y-3.3
X3.3Y-3.5
X3.3Y-3.8
X3.3Y-4.0
X3.3Y-4.3
X3.3Y-4.5504
X3.3Y-4.8504
X3.3Y-5.1
X3.3Y-5.4
X3.4Y-3.0
X3.4Y-3.3
X3.4Y-3.5
X3.4Y-3.8
X3.4Y-4.0
X3.4Y-4.3
X3.4Y-4.5504
X3.4Y-4.8504
X3.4Y-5.1
X3.4Y-5.4
X3.4Y-6.4
X3.4Y-6.6953
X3.5Y-3.0
X3.5Y-3.3
X3.5Y-3.5
X3.5Y-3.8
X3.5Y-4.0
X3.5Y-4.3
X3.5Y-4.5504
X3.5Y-4.8504
X3.5Y-5.1
X3.5Y-5.4
X3.5998Y-6.3996
X3.5998Y-6.6996
X3.6Y-3.0
X3.6Y-3.3
X3.6Y-3.5
X3.6Y-3.8
X3.6Y-4.0
X3.6Y-4.3
X3.6Y-4.5504
X3.6Y-4.8504
X3.6Y-5.1
X3.6Y-5.4
X3.62Y-5.615
X3.62Y-5.915
X3.6998Y-6.3996
X3.6998Y-6.6996
X3.7Y-3.0
X3.7Y-3.3
X3.7Y-3.5
X3.7Y-3.8
X3.7Y-4.0
X3.7Y-4.3
X3.7Y-4.5504
X3.7Y-4.8504
X3.7Y-5.1
X3.7Y-5.4
X3.72Y-5.615
X3.72Y-5.915
X3.7998Y-6.3996
X3.7998Y-6.6996
X3.8Y-3.0
X3.8Y-3.3
X3.8Y-3.5
X3.8Y-3.8
X3.8Y-4.0
X3.8Y-4.3
X3.8Y-4.5504
X3.8Y-4.8504
X3.8Y-5.1
X3.8Y-5.4
X3.82Y-5.615
X3.82Y-5.915
X3.8998Y-6.3996
X3.8998Y-6.6996
X3.9Y-3.0
X3.9Y-3.3
X3.9Y-3.5
X3.9Y-3.8
X3.9Y-4.0
X3.9Y-4.3
X3.9Y-4.5504
X3.9Y-4.8504
X3.9Y-5.1
X3.9Y-5.4
X3.92Y-5.615
X3.92Y-5.915
X3.9998Y-6.3996
X3.9998Y-6.6996
X4.0Y-3.0
X4.0Y-3.3
X4.0Y-3.5
X4.0Y-3.8
X4.0Y-4.0
X4.0Y-4.3
X4.0Y-5.1
X4.0Y-5.4
X4.02Y-5.615
X4.02Y-5.915
X4.0998Y-6.3996
X4.0998Y-6.6996
X4.1Y-3.0
X4.1Y-3.3
X4.1Y-3.5
X4.1Y-3.8
X4.1Y-4.0
X4.1Y-4.3
X4.1Y-5.1
X4.1Y-5.4
X4.12Y-5.615
X4.12Y-5.915
X4.1998Y-6.3996
X4.1998Y-6.6996
X4.2Y-3.0
X4.2Y-3.3
X4.2Y-3.5
X4.2Y-3.8
X4.2Y-4.0
X4.2Y-4.3
X4.2Y-5.1
X4.2Y-5.4
T3
X1.4Y-6.45
X1.4Y-6.55
X1.4Y-6.65
T0
M30
